<?xml version="1.0" encoding="UTF-8"?>
<svg id="Layer_1" data-name="Layer 1" xmlns="http://www.w3.org/2000/svg" viewBox="0 0 401.08 43.71">
  <defs>
    <style>
      .cls-1 {
        fill: #fff;
      }

      .cls-2 {
        fill: none;
      }
    </style>
  </defs>
  <path class="cls-1" d="M202.97.98l-15.87.2c-.37,2.33.9,13.98-1.06,14.75l-16.08-.39-1.27,14.55-15.87.2.63,13.18h32.17l.63-12.78c-1.07-1.5-16.21.74-13.54-2.36l29.41-.2.63-12-11.22-.2-1.48-.98,29.41.2.63-13.57-11.64-.2-1.9-1.38"/>
  <path class="cls-1" d="M169.11.98l-16.29.59c.28,1.96.65,13.83-.63,14.36l-16.08-.39-.85,14.55-16.72.2.63,13.18h32.59l.63-12.78-13.12-1.18,28.99-.2.21-13.18c-1.43-1.05-13.59,1.38-12.27-1.97l29.41.98.63-13.57c-.96-.71-14.17.69-13.12-1.18"/>
  <path class="cls-1" d="M135.25.98h-16.08l-1.27,14.95-15.66-.39-.85,14.55-16.29.2.63,13.18h31.74l.21-13.18c-1.49-.67-15.36.91-13.12-1.97l29.84-.2.63-11.6c-.69-2.11-12.44,1.44-12.49-2.16l29.2.79.21-13.57c-.59-.78-14.03.76-13.12-1.18"/>
  <path class="cls-1" d="M101.61.79l-16.29.2-.63,14.36-16.29.2-1.27,14.55-16.29.2.63,13.18h32.59l.21-12.78c.16-.85-18.27-.14-13.33-2.56,2.43-1.19,28.29,1.18,30.05-.79l-.21-11.21c-.87-1.65-13.2,2.05-12.49-2.16l29.63.79.21-12.78-13.12-1.18"/>
  <path class="cls-1" d="M67.11,1.38l-15.66-.39-.85,14.55h-16.08l-.85,14.55-16.29.2.21,13.18h32.17l.21-13.18c-.41-.54-17.24.64-12.49-2.16,1.29-.76,24.89.46,28.78,0l.63-12c-.8-1.05-12.06,1.2-12.49-1.38l29.2.39.63-13.18c-.88-1.84-12.8,1-12.91-1.77"/>
  <path class="cls-1" d="M33.41,1.38L.27,1.23v42.48l15.96-.24.63-12.78c-1.06-1.5-19.23.74-16.58-2.36l32.72-.2.21-12c-.67-1.1-13.96,1.34-12.58-1.97.54-1.29,26.2-.26,29.56-.59l-.21-12-12.16-.79"/>
  <path class="cls-2" d="M84.25,1.97l-.63,13.18-29.2-.39c.43,2.57,11.68.33,12.49,1.38l-.63,12c-3.89.46-27.49-.76-28.78,0-4.76,2.8,12.07,1.62,12.49,2.16l-.21,13.18H17.6l-.21-13.18,16.29-.2.85-14.55h16.08l.85-14.55,15.66.39"/>
  <path class="cls-2" d="M104.99.79l13.12,1.18-.21,12.78-29.63-.79c-.72,4.21,11.61.51,12.49,2.16l.21,11.21c-1.76,1.96-27.62-.4-30.05.79-4.94,2.42,13.49,1.71,13.33,2.56l-.21,12.78h-32.59l-.63-13.18,16.29-.2,1.27-14.55,16.29-.2.63-14.36,16.29-.2"/>
  <path class="cls-2" d="M138.85.39c-.91,1.94,12.53.4,13.12,1.18l-.21,13.57-29.2-.79c.04,3.6,11.8.05,12.49,2.16l-.63,11.6-29.84.2c-2.24,2.87,11.63,1.3,13.12,1.97l-.21,13.18h-31.74l-.63-13.18,16.29-.2.85-14.55,15.66.39,1.27-14.95h16.08"/>
  <path class="cls-2" d="M206.57,0l1.9,1.38,11.64.2-.63,13.57-29.41-.2,1.48.98,11.22.2-.63,12-29.41.2c-2.67,3.1,12.48.86,13.54,2.36l-.63,12.78h-32.17l-.63-13.18,15.87-.2,1.27-14.55,16.08.39c1.96-.77.69-12.42,1.06-14.75l15.87-.2"/>
  <path class="cls-2" d="M173.13.39c-1.05,1.87,12.16.47,13.12,1.18l-.63,13.57-29.41-.98c-1.32,3.35,10.84.92,12.27,1.97l-.21,13.18-28.99.2,13.12,1.18-.63,12.78h-32.59l-.63-13.18,16.72-.2.85-14.55,16.08.39c1.28-.53.91-12.39.63-14.36l16.29-.59"/>
  <path class="cls-2" d="M.27,30.09v-14.55h16.48l.85-14.55,15.66.39"/>
  <path class="cls-2" d="M37.7.79l12.27.79.21,12c-3.39.33-29.29-.7-29.84.59-1.4,3.31,12.03.87,12.7,1.97l-.21,12-32.56.2c-2.67,3.1,15.2.86,16.27,2.36l-.63,12.78"/>
  <path class="cls-1" d="M401.08,15.93l-27.76-.39-1.27,14.55-15.87.2.63,13.18h44.27v-12.78c-1.07-1.5-27.68.74-25.01-2.36l25.01-.2v-13.18.2V0"/>
  <path class="cls-1" d="M372.47.98l-16.29.59c.28,1.96.65,13.83-.63,14.36l-16.08-.39-.85,14.55-16.72.2.63,13.18h32.59l.63-12.78-13.12-1.18,28.99-.2.21-13.18c-1.43-1.05-13.59,1.38-12.27-1.97l41.52.98V1.57c-.96-.71-25.64.69-24.59-1.18"/>
  <path class="cls-1" d="M338.61.98h-16.08l-1.27,14.95-15.66-.39-.85,14.55-16.29.2.63,13.18h31.74l.21-13.18c-1.49-.67-15.36.91-13.12-1.97l29.84-.2.63-11.6c-.69-2.11-12.44,1.44-12.49-2.16l29.2.79.21-13.57c-.59-.78-14.03.76-13.12-1.18"/>
  <path class="cls-1" d="M304.97.79l-16.29.2-.63,14.36-16.29.2-1.27,14.55-16.29.2.63,13.18h32.59l.21-12.78c.16-.85-18.27-.14-13.33-2.56,2.43-1.19,28.29,1.18,30.05-.79l-.21-11.21c-.87-1.65-13.2,2.05-12.49-2.16l29.63.79.21-12.78-13.12-1.18"/>
  <path class="cls-1" d="M270.47,1.38l-15.66-.39-.85,14.55h-16.08l-.85,14.55-16.29.2.21,13.18h32.17l.21-13.18c-.41-.54-17.24.64-12.49-2.16,1.29-.76,24.89.46,28.78,0l.63-12c-.8-1.05-12.06,1.2-12.49-1.38l29.2.39.63-13.18c-.88-1.84-12.8,1-12.91-1.77"/>
  <path class="cls-1" d="M236.62,1.38l-15.66-.39-.85,14.55h-16.51l-.85,14.55-16.29.2.63,13.18h32.17l.63-12.78c-1.07-1.5-16.21.74-13.54-2.36l29.84-.2.21-12c-.67-1.1-14.09,1.34-12.7-1.97.54-1.29,26.45-.26,29.84-.59l-.21-12-12.27-.79"/>
  <path class="cls-2" d="M287.62,1.97l-.63,13.18-29.2-.39c.43,2.57,11.68.33,12.49,1.38l-.63,12c-3.89.46-27.49-.76-28.78,0-4.76,2.8,12.07,1.62,12.49,2.16l-.21,13.18h-32.17l-.21-13.18,16.29-.2.85-14.55h16.08l.85-14.55,15.66.39"/>
  <path class="cls-2" d="M308.35.79l13.12,1.18-.21,12.78-29.63-.79c-.72,4.21,11.61.51,12.49,2.16l.21,11.21c-1.76,1.96-27.62-.4-30.05.79-4.94,2.42,13.49,1.71,13.33,2.56l-.21,12.78h-32.59l-.63-13.18,16.29-.2,1.27-14.55,16.29-.2.63-14.36,16.29-.2"/>
  <path class="cls-2" d="M342.21.39c-.91,1.94,12.53.4,13.12,1.18l-.21,13.57-29.2-.79c.04,3.6,11.8.05,12.49,2.16l-.63,11.6-29.84.2c-2.24,2.87,11.63,1.3,13.12,1.97l-.21,13.18h-31.74l-.63-13.18,16.29-.2.85-14.55,15.66.39,1.27-14.95h16.08"/>
  <path class="cls-2" d="M401.08,0v15.14-.2,13.18l-25.01.2c-2.67,3.1,23.94.86,25.01,2.36v12.78h-44.27l-.63-13.18,15.87-.2,1.27-14.55,27.76.39"/>
  <path class="cls-2" d="M376.49.39c-1.05,1.87,23.62.47,24.59,1.18v13.57l-41.52-.98c-1.32,3.35,10.84.92,12.27,1.97l-.21,13.18-28.99.2,13.12,1.18-.63,12.78h-32.59l-.63-13.18,16.72-.2.85-14.55,16.08.39c1.28-.53.91-12.39.63-14.36l16.29-.59"/>
  <path class="cls-2" d="M241.06.79l12.27.79.21,12c-3.39.33-29.29-.7-29.84.59-1.4,3.31,12.03.87,12.7,1.97l-.21,12-29.84.2c-2.67,3.1,12.48.86,13.54,2.36l-.63,12.78h-32.17l-.63-13.18,16.29-.2.85-14.55h16.51l.85-14.55,15.66.39"/>
</svg>