<?xml version="1.0" encoding="UTF-8"?>
<svg id="Layer_1" data-name="Layer 1" xmlns="http://www.w3.org/2000/svg" viewBox="0 0 397.54 85.67">
  <defs>
    <style>
      .cls-1 {
        fill: #fff;
      }
    </style>
  </defs>
  <path class="cls-1" d="M374.07,2.49c1,.48,2.13.83,3.08,1.42.19.12,1.23.86,1.27.92.24.41-.15,1.59.15,2.26.23.5,1.74,1.59,2.2,2.2,1.47,1.97,1.12,3.29-1.47,3.46l.51,2.11,5.68,1.42c.33-.03.04-.81.67-.98s2.94.41,3.52.8c.5.33.74,1.11,1.16,1.36.79.47,3.56.55,4.81,1.06.97.39,2.98,1.68,1.16,2.4-.92-.17-6.2-2.01-6.61-1.66l1.05,1.46h-1.05c.3.87-.52,1.23-.63,1.79-.29,1.49-.03,3.12-.48,4.97-.23.95-.62,2.81-1.61,3.02-2.84.6-4.93-4.1-6.5-5.78-.6,2.85-1.23,5.77-1.26,8.69,1.32,2.84-.23,5.02.23,7.74.05.31.37.57.38.85.01.27-.23.59-.21.82.01.11.73.34.97.97,2.61,6.98,5.47,14.62,5.77,22.1.09,2.32-.19,4.86-.02,7.14.12,1.57,1.25,4.02,1.79,5.55.34.98.3,2.09,1.29,2.69.58.35,3.78,1.1,3.12,2.34s-3.8.44-4.87.04c-.63-.23-1.92-1.17-2.32-1.26-.69-.15-1.5.79-2.93,0-1.05-.57-.57-2-.73-3.04-.18-1.14-.86-2.27-.99-3.62-.22-2.27-.45-4.64-.63-6.91-.12-1.49.21-3.35-.05-4.77-.17-.91-1.85-4.81-2.38-5.79-.65-1.19-1.64-2.34-2.35-3.52-1.01-1.7-1.85-3.58-2.92-5.24-.13-.2.02-.37-.47-.27-.48,2.58-1.37,5.28-1.65,7.88-.52,4.78-.75,9.59-.33,14.36.22,2.49,1.02,4.5.66,7.14-.17,1.27-.98,2.34-1.18,3.6-1.63-.04-1.26,1.19-2.22,2.01s-3.42.94-3.67-.33c-.31-1.62,1.06-2.05,1.33-3.07.17-.61-.22-1.11.01-1.85.16-.5.89-.93.94-1.17.04-.22-1.59-2.42-1.66-3.54-.05-.79.25-1.49.23-2.3-.02-.77-.37-1.55-.43-2.31-.35-4.6.52-8.57.2-12.99-.42-5.89-2.89-9.8-1.16-15.83.27-.92.91-1.83,1.14-2.63.27-.93-.07-1.72.11-2.61.3-1.48,1.89-2.86,2.17-4.12.48-2.16.56-8.95-1.09-10.55-.88-.85-4.39-.65-5.85-.85-2.65-.37-6.56-1.11-9.15-1.75-2.42-.59-4.63-1.93-7.12-2.21v.84c-1.59-.34-2.83-.81-4.52-.64-1.25.13-2.1,2.04-3.15.43l-1.14.21c-.27-1.39,1.14-2.13,1.26-3.35-.96.03-2.07.09-2.72-.73.29-.27.51-.68.95-.74.73-.1,3.27.47,4.21.61.27.04.59-.15.93-.09.66.11,1.41.71,2.21.73.57.02,1.51-.41,2-.29.56.13.55.83,1.12.94,2.21.42,5.09-.02,7.31.23,1.17.13,2.46.74,3.65.96,2.81.54,5.07.33,7.88.04,1.36-.14,2.59-.76,4.11-.19l-.22-.72c-2.49-.94-4.55-2.18-6.27-4.2-.19-.23-1.61-2.06-1.47-2.19l3.33,1.8c.74.12,3.45,2.81,3.68,2.81h3.04c.32-.88-.66-.93-.65-1.36l.65-1.78-3.97-1.16c.96-1.09,2.67-.86,3.93-1.41.7-1.46.98-3.4,2.35-4.35h1.89ZM370.47,14.05l-1.85-.24c.27.59,1.04.75,1.57,1.05.46.17.39-.64.28-.81ZM386.63,24.08c.37-.96.55-2.86.11-3.77-.16-.34-1.04-.6-1.34-1.17-.24-.46-.17-1.24-.44-1.45l-1.89-.52c.85,2.24,1.73,4.67,3.09,6.64.13.18-.03.39.46.27Z"/>
  <path class="cls-1" d="M321.54,31.73c1.83.35,2.17,3.81,3.41,4.18,1.72.51,4.48-.2,5.12,1.96,3.66-.86,7.19.28,10.37,2.07,2.85,1.6,8.83,6.23,9.63,9.43,1.1,4.4,1.01,7.95-.57,12.26-.47,1.29-1.21,2.39-1.65,3.68,4.79-2.95,3.45,5.24,1.81,7.37-.9,1.18-2.04,1.31-2.93,2.06-1.21,1.02-2.98,4.57-4.5,5.03-1.82.55-4.32.56-5.32-1.37-2.2-4.22-.08-6.4.84-10.37.67-2.9.82-5.74.53-8.7l-.43-.28-7.1-.07-3.34,5.52c.16,1.94.23,4.22.49,6.11s.83,3.67,1.23,5.35c.18.77.2,1.51.55,2.26-1.48,1.08-3.11.8-4.76,1.26-.82.23-1.46.73-2.2.97-2.01.65-3.76,1.06-5.71.03-.86-1.25,3.47-2.35,4.25-2.52-.13-.81.74-2.22.72-2.77-.01-.39-.35-.93-.44-1.4-.08-.45.21-2.08-.58-1.91l-4.11,3.63.26,1.37c-.67.58-1.67.42-2.28,1.13-.42.49-.92,1.89-1.29,2.57-.2.37-.63.59-.82.99-.51,1.09-.11,2.56-1.18,3.47h-.45c-.68-.68-.43-1.23-.23-2.04-.91.48-1.44,1.1-2.59.9-.33-.06-.59-.37-.95-.42-.56-.09-1.84.02-2.12-.14-.04-.02-.65-.62-.65-.66-.03-1.15,1.35-1.23.76-2.4l-2.3.42-.45.5-.77-.24.23-.9-.45.11v-.8c-.71.42-1.53-.04-1.07-.86.05-.09.61.08.39-.5l-.9.23v-1.13s-.68.45-.68.45l.45-1.36-.91.45v-.45c1.04-.17.76-1.86,1.37-2.6.34-.41,1.18-.66,1.7-.8l.11.68c.93-.37.6-1.5.91-2.27.53.53.58,1.31,1.25,1.81l.6-.65.42.2c-.08-.41-.33-.62.12-.91l.79.45-.22-1.81c.59-.08.58-.02.79.45,1.13-1.22,1.47-2.92,1.48-4.54l1.35.22c1.16-3.18,2.4-6.5,4.05-9.45.97-1.72,5.6-8.42,4.53-10.24-.46-.77-1.26-.4-1.84-.49-.16-.03-.13-.42-.31-.46-1.13-.28-2.46.73-4.24-.26-2.06-1.14-1.32-3.43-.33-5.03.42-.68,2.08-2.24,2.18-2.58.24-.8-.16-1.47-.12-2.17.09-1.66,1.65-2.41,2.89-3.24l2.5-.79h2.72ZM323.35,49.66c-.63-.45-1.49,1.46-1.36,1.59l1.81-.45v-.68s-.45.23-.45.23v-.68ZM318.81,57.37l-7.48,10.1,1.13.68c-.02.53-.86,1.08-1.02,1.48-.19.46-.59,1.87-.74,2.43-.39,1.49,0,1.34.62,2.55.83-.33,1.18-1.95,2.14-1.82.31.04.59.41.7.41.79,0,5.04-6.14,5.74-7.15-.18-2.92-.44-5.82-1.09-8.67Z"/>
  <path class="cls-1" d="M284.39,4.97c-.26.98-2.24,2.6-2.1,3.48.02.11.59,1.75.65,1.82.12.14.82.27,1.14.47,3.54,2.24,4.83,4.3,6.21,8.14.29.8.96,1.94,1.12,2.73.21,1.05.09,2.35.37,3.49.42,1.71,1.97,3.52,2.2,5.08.12.78-.17,1.26-.12,1.83.09,1.04.89,2.85,1.04,3.89.62,4.52-1.94,12.05-2.29,16.96-.28,4.03.52,7.73.36,11.75-.22,5.32-.25,10.75-1.45,15.89-.3,1.3.17,2.72-1.89,3.04-3.75.58-2.89-.96-3.4-3.42-.16-.77-.89-1.58-.97-2.26-.14-1.16.71-2.22.97-3.29.55-2.28-.28-5.98-.34-8.46-.07-3.02.29-5.71,0-8.77-.26-2.63.03-3.43.02-5.79,0-1.32-.19-4.08-.45-5.35-.05-.26-.1-.51-.41-.55-.56,2.07-1.77,3.96-2.52,5.94-.33.86-1.05,2.95-1.1,3.79-.04.62.38,1.88.4,2.58.12,3.05-.31,6.15-.43,9.2-.06,1.49.09,2.99-.02,4.48-.21.6-2.05.3-2.64,1.22s-.9,3.49-1.58,4.84c-.6,1.18-2.31,3.6-3.39,4.32-1.95,1.29-2.7.98-4.14-.71-2.84-3.31-1.84-8.58-.86-12.44,1.72-.44,2.86,1.94,4.03-.24l1.34-18.98c-2.41-.79-.26-1.95.18-3.47.32-1.1.6-7.13.25-8.13-.26-.72-1.09-1.41-1.25-2.18-.17-.82.02-1.78-.05-2.63l-.85.43c-.3-2.72,3.19-2.43,4.16-3.65.73-.9,1.32-4.34.86-5.34-.13-.28-.64-.54-.84-.87-.92-1.5-.67-2.33-1.07-3.85-.23-.86-.87-2.41-1.83-1.49v-.86s-.43.22-.43.22l-.22-1.07-.42.21-1.18-4.07c-.93-.5-2.12-.56-2.78-1.5-1.1-1.57-.47-5.31,1.32-6.15.51-.24,1.37-.17,1.67-.47.96-.95.81-4.27,2.61-4.67.57-.13,3.89-.14,4.34.07.96.43,1.49,3.21,2.15,4.06l3.64.75ZM276.47,43.72c-.16-1.14.7-1.82.97-2.57.75-2.04,1.65-5.15,2.15-7.27.17-.73.27-1.61.31-2.36-.78.59-.45,1.72-.7,2.62-.95,3.44-2.65,3.92-2.94,8.2-.02.29-.18,1.32.21,1.39ZM277.97,35.59l-3.85.43c-.28.33,1.54,2.42,1.82,2.35l2.04-2.78ZM275.36,68.94c.63-.37.19-3.29.24-4.14.13-2.07.6-3.76.44-5.98-.04-.58-.13-1.95-.64-2.25.33,1.63-1.52,11.86-.63,12.41.09.05.47.04.59-.03Z"/>
  <g>
    <path class="cls-1" d="M13.51,9.69c.33-.04,1.76-.55,2.02-.76,2.08-1.67,1.43-4.78,5.41-4.1,1.37.24,4.82,2.34,5.38,3.58.73,1.61-.93,3.98-.74,5.42.18,1.36,2.71,3.87,2.34,5.68l-4.16-3.41-.2,1.29-.98.2.21,1.06c-.67-.24-.7.53-.99.63-.4.13-.85-.26-1.21-.17-.25.06-.39.41-.58.5-.98.47-1.85-.61-1.91-.53-.3,2.61-.33,5.29,0,7.9l-.42-.22-.21.64c.31-1.43-.13-2.66-.16-4.01,0-.21.47-2.08-.16-1.76-.96.5-.26,3.63-.32,4.35-.05.54-.55,1-.64,1.72-.13,1.07.27,7.43.53,8.44.25.93,1.85,2.77,2.42,3.77,1.64,2.89,2.25,5.66,5.31,7.5.81.49,1.78.68,2.62,1.22.54.35,1.73,1.72,2.15,1.9.87.38,2.46.21,3.04,1.45.06,1.78.63,4.08.36,5.8s-2.99,1.85-2.72,3.19c.24,1.17,6.54,4.72,7.9,5.68,3.62,3.58,9.44,6.21,13.08,9.61,1.07,1-.02,1.25-.53,2.25h-.44c-4.7-2.89-9.31-5.97-14.07-8.78-1.54-.9-5.15-3.29-6.58-3.66-2.93-.77-5.17-.71-7.63-3.05-.99-.94-1.78-3.03-1.83-4.38-.04-1.11.58-2.25,1.82-2.03.41.07.55.49.97.43l-.14-.64c-.94-.13-1.43-.92-2.42-.42-.1-.65.16-.35.54-.42.85-.17,1.22-.03,2.02.21-.69-1.96-.68-3.96-1.21-5.92l-1.9-1.34-.06-.27c1.06-1.01-1.18-2.35-1.95-3.25s-1.62-2.43-2.26-3.08c-.18-.18-.2-.3-.52-.22.06.52-.65,1-.64,1.39,0,.28.44.7.45,1.49,0,.86-.44,1.31-.45,1.91-.03,2.16.85,5.58,1.07,7.91.33,3.56-.07,7.57-.66,11.08-.15.89-1.31,3.96-1.21,4.47.14.75,2.22.93,1.29,2.86-.13.26-.44.24-.48.42-.28,1.09.36.85.64,1.22.51.69,1,1.57,1.8,2.05.87.52,2.77.41,2.9,1.8-.14,1.47-4.45,1.62-5.56,1.18-.05.34-.17.4-.03.75.17.4,1.56,2.06,1.95,2.55.47.59,1.79,1.34,1.18,2.26-.46.69-4.51.7-5.41.48-.54-.13-5.1-2.29-5.17-2.57-.42-1.15.51-3.16.43-4.01-.05-.52-.88-1.24-.87-2.15.01-.66.49-.72.61-1.1.33-1.05-.28-1.65-.39-2.51-.15-1.22.22-2.31.24-3.42.04-2.56-.47-5.82.03-8.28.12-.58.9-1.25.78-1.71-.07-.29-.55-.51-.71-.8-.29-.54-2.06-4.1-2.16-4.46-.14-.55-.01-1.12-.15-1.56-.98-3.29-2.55-5.12-3.26-8.72-.07-.34-.64-.86-.79-1.31-.69-2.07,1.84-10.91,1.97-13.93.05-1.08-.4-2.17-.2-3.19.1-.5.79-1.5,1-2.2.63-2.14,1.32-6.45,2.94-7.94,1.27-1.17,3.63-2.53,5.42-2.38l.37-.8,1.79.19c.36-.37-1.19-1.73-1.42-2.1l-2.42-.89c1.24-.12,2.74.16,3.95,0ZM30.49,57.09c.62-.34.53-2.28.42-2.88-.1-.52-1.48-1.84-2.02-1.81-.3.01-.59.4-1.06.44-.96.08-2.18-.55-3.1.51.21,1.01.77.21,1.22.15,2.35-.31,4.18,1.32,4.55,3.58Z"/>
    <path class="cls-1" d="M30.49,57.09c-.37-2.26-2.19-3.89-4.55-3.58-.45.06-1.01.86-1.22-.15.92-1.07,2.13-.43,3.1-.51.48-.04.76-.43,1.06-.44.55-.03,1.93,1.29,2.02,1.81.11.59.2,2.54-.42,2.88Z"/>
  </g>
  <path class="cls-1" d="M49.95,28.11c.4-1.4,1.45-2.52,2.02-3.82,1.07-2.45,1.18-4.95,3.33-6.96.99-.92,3.3.11,3.87-.89.13-.23-.16-.53-.02-.79.08-.14.83-.58.84-.63.04-.14-.17-.42-.07-.76.66-2.43,2.54-8.11,5.57-8.32.76-.05,3.36.91,3.93,1.43.46.42,1.5,3.07,1.49,3.64,0,.51-.62,1.1-.73,1.62-.17.83-.13,1.92-.3,2.87-.15.83-.5,1.59-.69,2.41,1.72,1.87,2.73,2.16,2.53,4.97-.19,2.62-1.29,7.55-.24,9.94.19.44.79.96,1.07,1.5,1.3,2.57,1.97,4.64,4.02,6.87.6.65,1.47,1.04,2.05,1.9.95,1.4.16,1.51.3,2.05.16.62,1.83,2.27,2.1,3.07l.27.07c.7-.43,1.64-1.47,2.49-.87,1.61,2.07,3.59,3.97,4.76,6.33-.46-.13-.98-.73-1.29-1.08-1.36-1.54-2.56-3.27-3.86-4.87l-1.38.51,4.94,6.63c-.2.32-.44-.07-.59-.2-.99-.82-4.36-5.71-4.88-5.81-.53.07-1.29.53-.97,1.15,1.49,1.97,3.48,3.87,4.46,6.14-1.96-1.71-3.25-4.07-4.94-6.04-.31-.3-1.45.19-1.39.59.13.85,3.23,4.25,3.93,5.19.2.27.74.9.53,1.25-.94-.9-1.84-1.86-2.67-2.87-.38-.47-2.26-2.88-2.34-3.21-.22-.87,1.06-1.55,1.72-1.86.31-.54-1.36-2.21-1.66-2.74l-.79.59c-.38-.26-.24-.8-.48-1.1-.22-.28-.83-.31-1.21-.77-.58-.7-.82-2.16-1.14-3.01l-5.18-5.8c.17,1.01-.26,2.04-.15,3.01.12,1.06,1.17,2.82,1.53,3.82,2.01,5.54,2.7,15.37,3.34,21.39.24,2.21.16,6.61.78,8.33.15.42.55.73.62,1.16.14.77-.18,2.12,0,2.74.06.21.61.04.86.56.3.63.04,1.8.53,2.44s2.82,1.19,2.96,2.54c-1.23,1.27-3.47.49-4.79-.31-.43-.26-1-1.01-1.47-1.12-.78-.18-1.22.51-2.37-.38-.99-.76-.46-1.32-.69-2.28-1.2-5.09-1.32-9-1.96-14.07-.14-1.08-.86-2.14-1.08-2.87-.42-1.37-.47-2.12-1.02-3.54-.92-2.4-2.16-5.7-3.37-7.9-.13-.23.01-.33-.44-.25-.35,2.35-1.18,4.59-1.72,6.89-1.07,4.54-2.22,9.38-2.25,13.98s.8,5-1.46,9.42c-.19.36-.03.89-.4,1.2-.25.21-.59-.02-.81.15-.29.23-.45.87-.77,1.22-.86.95-3.59,1.76-3.85.08-.25-1.59.66-1.49,1.12-2.61.36-.87-.04-1.13.14-1.82.19-.74,1.01-1,1.04-1.5.06-.93-.86-1.73-1.04-2.64-.27-1.36.35-2.09.48-3.3.38-3.42.52-5.66,1.16-9.13,1.02-5.56-.19-8.79-.54-14-.19-2.81.61-4.42,1.1-7.01.15-.81-.09-.35.28-1.14.76-1.58-.34-1.99-.17-3.08.11-.66,1.2-2.26,1.45-3.12.39-1.29.09-2.85-.1-4.15-.26-.23-1.86,1.61-2.19,1.86-.67.51-2.34,1.39-3.16,1.22-.48-.1-.5-.76-.97-.91v-3.17Z"/>
  <path class="cls-1" d="M117.71,36.33c-.37.34-1.19.3-1.53.65-.42.43-1.05,2.39-1.53,2.74-.55.4-1.83.28-2.5.48-1.2.36-2.73,1.73-1.38,2.88-2.37.86-5.3,2.15-7.24,3.78s-5.6,7.51-6.75,9.92c-2.68,5.61-1.83,10.45,2.45,15.02l2.41,4.63c-2.68-.81-5.48-1.3-8.18-2.04-.86-.24-2.93-1.4-3.72-1.04-1.83.83-.25,4.28.14,5.61.11.38,0,.83.14,1.25.42,1.35,3.36,1.71,4.53,1.34.38-.12.57-.66.86-.71.11-.02,1.96.38,2.27.45,2.87.66,5.37,2.69,8.33,3.29h1.39c3.97-1.74,2.65-5.49,1.73-8.78-.84-3-2.21-5.82-2.11-9.07l8.91-1.21c-1.12,5.08-1.18,10.24-2.44,15.33-.04.18-.21.32-.33.45,1.37,1.57,3.21.61,5.06.68,1.41.06,2.64.54,4.16.4.56-.05,3.47-.6,2.67-1.58-.07-.09-1.96-.46-2.27-.51-.4-.07-.79.27-1.45-.04s-.72-1.74-1.81-1.66c-.22-.52.33-.91.38-1.29.05-.41-.25-.82-.17-1.14s.62-.63.75-1.45.22-5.62.42-5.84c.55.26,3.98,1.24,4.13,1.43s-.08.95.58,1.13c.41.11,1.23-.26,1.93-.16.92.13,2.06,1.04,3.2.96.79-.05,2.02-1.89,1.69-2.73,1.94-.38-.26-1.3.18-2.2-1.21.28-2.42.04-3.66.21-.34.04-.58.29-.85.34-.38.07-2.54-.32-3.04-.45-1.08-.28-2.09-1.5-3.13-1.93-.37-.62,1.18-2.8-.15-4.51-1.11-1.42-3.57-1.9-5.25-2.1-.83-1.35-1.29-2.89-1.38-4.47l.59.4.03-.37.54.14.12-.36.89.59c-.62-.81-.46-1.42-.4-2.38l-.79.2c-.15-.78-.16-1.41,0-2.18.35-.06.12.34.26.53.45.62,1.39.86,1.33,1.85l.35-1.75-.15-.63c.39-.04.5.28.89.37.23.05.75-.17.8-.16.24.09.71,1.75.92,2.04.18.26.49.41.77.52-.77-1.87-.75-3.66-.2-5.56.64.32.99-.2,1.48-.21.71-.01,1.45.36,2.38.2.49-.08.92-.59,1.16-.55.41.06,2.29,1.81,2.45,2.29.41,1.27,1.75,3.54,2.75,4.63.52.57,1.04,1.17,1.87,1.21l.02,1.77c.57-.04.7-1.34.89-1.39.66-.17.26,1.3.69,1.39.29-.82.01-1.28-.39-1.98.6-.25.93.8,1.4.5.79-.5.05-1.22.04-1.56,0-.28.35-1.42.64-1.47l.7.14c.22-.22-1.12-2.2-1.41-2.46-1.29-1.18-3.15-.75-4.44-2.31-.18-.22-.27-.73-.33-.76-.21-.15-.7.17-.98.07-.58-.2-2.95-4.13-4.57-4.94-.53-.27-.97.01-1.49-.7-.7-.96.06-1.56-.12-2.45-.21-1.04-1.84-1.7-2.69-2.09l-2.44-.64h-.99ZM110.56,58.36h-3.18c-.11-.81.57-1.35.91-2l2.08.5.19,1.5Z"/>
  <path class="cls-1" d="M265.1,65.84c-1.19-.74-1.59-1.33-3.08-.96-.24.06-1.93.77-2.04.86-.25.21-.28.7-.55,1.01-1.58,1.8-1.93.22-3.1.28-.15,0-2.66.86-2.82.94-.42.21-.57.96-.9,1.34-1.09,1.26-2.9,1.89-4.46,2.34-.19-.18,1.04-1.69,1.2-2.03,1.12-2.28,2.39-4.49,3.53-6.73.82-1.63,1.53-5.63,1.3-7.43-.11-.85-.5-.63-.87-1.13-3.32-4.43-4.91-8.42-9.78-11.86-5.3-3.75-9.26-2.92-15.24-1.38-.27-.25.76-1.2,1.11-1.12l-.11-.44-6.25,1.14c-1.97-.62-3.68-3.25-5.92-2.83-2.64.5-6.14,4.11-5.74,6.88.22,1.55,1.91,3.1,2.54,4.51-.48,1.97-1.25,3.93-1,6.01.03.22.12.98.53.8.75-.32,2.76-2.97,3.46-3.69.65.26,1.24-.39,1.65-.34.17.02.14.49.5.64.64.27,1.63.41,2.3.27.06,1.97-.08,3.95,0,5.92.03.91.48,2.26.44,3.1s-.79,1.97-1,2.79c-.43,1.67-1.33,8.48-1.87,9.24-.14.19-.61.18-.92.47-.48.44-.92,1.91-1.1,2.03-.26.17-.76.06-1.12.22-.25.12-.4.51-.69.65-.88.44-1.72.4-2.56,1.23-1.02,1.01-2.56,4.41-.69,5.13.78-1.12,1.86-.9,2.91-1.35.55-.24,4.6-3.09,4.82-2.88.1.47-.24.51-.51.72-.88.7-1.75,1-2.48,1.98-.16.22-1.4,2.37-.47,1.99l5.41-3.54c.58-.14,1.82,1.34,2.26-.1l-.42-1.05,9.28-1.1c.88-.73-.06-2.61-.09-3.47-.06-1.63,1.01-2.96-.7-4.25-.44-.33-1.42-.45-1.31-.85.39-1.44,2.25-2.17,3.32-3.16.68-.63,2.71-2.85,2.84-3.63.12-.65-.17-2.25.39-2.51.39-.18.9,1.25.95,1.5.87,4.77-.87,10.02-.37,14.87.35,3.38,1.96,5.11,5.44,4.82.64-.05,2.57-.58,2.97-.92.05-.04-.12-.32-.05-.42.14-.19.48-.17.53-.23.14-.18-1.44-2.04.76-1.78l.25.45c.5.11.2-.33.49-.44.78-.3,2.42.27,3.25.17,1.86-.22,3.53-2.3,4.96-3.31.97.17.33.9.32,1.47-.02,1.51,2.11,1.51,3.18,1.37,4.84-.63,3.92-5.34,5.31-8.85v-3.35ZM229.4,63.61v-5.24s-.47-.41-.11-.56c.88.78,2.93.5,3.01,1.91.06,1.08-2.03,3.22-2.9,3.89Z"/>
</svg>